<svg width="32" height="32" viewBox="0 0 32 32" fill="none" xmlns="http://www.w3.org/2000/svg">
<g id="24-hours-support 2" clip-path="url(#clip0_9170_37248)">
<g id="Group 2839">
<path id="Vector" d="M0 21.7115C0 22.1661 0.180612 22.6021 0.502104 22.9236C0.823596 23.2451 1.25963 23.4257 1.71429 23.4257H4.00001C4.15156 23.4257 4.29691 23.3655 4.40407 23.2584C4.51124 23.1512 4.57144 23.0059 4.57144 22.8543V15.9972C4.57144 15.8457 4.51124 15.7003 4.40407 15.5931C4.29691 15.486 4.15156 15.4258 4.00001 15.4258H1.71429C1.25963 15.4258 0.823596 15.6064 0.502104 15.9279C0.180612 16.2494 0 16.6854 0 17.1401V21.7115Z" fill="#095C37"/>
<path id="Vector_2" d="M29.7143 14.2837V13.7123C29.7143 10.075 28.2694 6.58676 25.6974 4.01485C23.1255 1.44293 19.6372 -0.00195312 16 -0.00195312C12.3627 -0.00195312 8.87441 1.44293 6.30247 4.01485C3.73054 6.58676 2.28564 10.075 2.28564 13.7123V14.2837H3.4285V13.7123C3.4285 10.3781 4.75299 7.18055 7.1106 4.82297C9.4682 2.46538 12.6658 1.1409 16 1.1409C19.3341 1.1409 22.5317 2.46538 24.8893 4.82297C27.2469 7.18055 28.5714 10.3781 28.5714 13.7123V14.2837H29.7143Z" fill="#095C37"/>
<path id="Vector_3" d="M22.2854 30.2836H19.4282V31.4264H22.2854C24.1551 31.4235 25.955 30.716 27.3263 29.4452C28.6977 28.1743 29.5398 26.4334 29.6848 24.5693H28.542C28.3982 26.13 27.6771 27.5807 26.5199 28.6377C25.3627 29.6946 23.8526 30.2815 22.2854 30.2836Z" fill="#095C37"/>
<path id="Vector_4" d="M14.8572 31.9976H17.7144C17.8659 31.9976 18.0113 31.9374 18.1184 31.8303C18.2256 31.7231 18.2858 31.5777 18.2858 31.4262V30.2833C18.2858 30.1318 18.2256 29.9864 18.1184 29.8793C18.0113 29.7721 17.8659 29.7119 17.7144 29.7119H14.8572C14.5541 29.7119 14.2634 29.8323 14.0491 30.0466C13.8348 30.261 13.7144 30.5517 13.7144 30.8548C13.7144 31.1579 13.8348 31.4486 14.0491 31.6629C14.2634 31.8772 14.5541 31.9976 14.8572 31.9976Z" fill="#095C37"/>
<path id="Vector_5" d="M16.0001 28.5694C18.0344 28.5694 20.0231 27.9661 21.7145 26.8359C23.406 25.7057 24.7244 24.0993 25.5029 22.2199C26.2814 20.3404 26.4851 18.2723 26.0882 16.2771C25.6913 14.2819 24.7117 12.4491 23.2732 11.0107C21.8347 9.57218 20.002 8.59256 18.0067 8.19569C16.0115 7.79881 13.9434 8.0025 12.0639 8.781C10.1844 9.5595 8.57803 10.8778 7.44782 12.5693C6.3176 14.2608 5.71436 16.2494 5.71436 18.2837C5.71753 21.0107 6.80222 23.625 8.73049 25.5533C10.6587 27.4815 13.2731 28.5662 16.0001 28.5694ZM20.5715 15.4266H23.4287C23.5307 15.4266 23.6308 15.4539 23.7187 15.5057C23.8066 15.5574 23.879 15.6318 23.9285 15.721C23.9779 15.8102 24.0026 15.911 23.9999 16.013C23.9972 16.115 23.9673 16.2144 23.9133 16.3009L21.0561 20.8723C21.0163 20.9361 20.9644 20.9914 20.9032 21.0351C20.8421 21.0788 20.7729 21.11 20.6997 21.127C20.6265 21.144 20.5506 21.1464 20.4765 21.1341C20.4023 21.1217 20.3313 21.0949 20.2675 21.0551C20.2037 21.0154 20.1484 20.9634 20.1047 20.9023C20.061 20.8411 20.0298 20.7719 20.0128 20.6987C19.9958 20.6255 19.9934 20.5496 20.0057 20.4755C20.0181 20.4013 20.0449 20.3303 20.0847 20.2666L22.4001 16.5694H20.5715C20.42 16.5694 20.2746 16.5092 20.1675 16.4021C20.0603 16.2949 20.0001 16.1496 20.0001 15.998C20.0001 15.8465 20.0603 15.7011 20.1675 15.594C20.2746 15.4868 20.42 15.4266 20.5715 15.4266ZM17.7258 15.3123C17.7598 15.1681 17.8485 15.0428 17.9732 14.9627C18.0979 14.8827 18.2488 14.8542 18.394 14.8832C18.5393 14.9123 18.6676 14.9966 18.7519 15.1185C18.8362 15.2403 18.8699 15.3901 18.8458 15.5363L17.703 21.2506C17.6775 21.3805 17.6078 21.4975 17.5057 21.5817C17.4035 21.6659 17.2753 21.7121 17.143 21.7123C17.1046 21.7125 17.0662 21.7087 17.0287 21.7008C16.9551 21.6858 16.8852 21.6565 16.823 21.6145C16.7608 21.5725 16.7075 21.5186 16.6661 21.456C16.6247 21.3934 16.5961 21.3233 16.5818 21.2496C16.5675 21.1759 16.5679 21.1001 16.583 21.0266L17.7258 15.3123ZM12.0001 15.998C12.0001 15.8465 12.0603 15.7011 12.1675 15.594C12.2746 15.4868 12.42 15.4266 12.5715 15.4266C12.7231 15.4266 12.8684 15.4868 12.9756 15.594C13.0827 15.7011 13.1429 15.8465 13.1429 15.998V18.8551H13.7144V18.2837C13.7144 18.1322 13.7746 17.9868 13.8817 17.8797C13.9889 17.7725 14.1343 17.7123 14.2858 17.7123C14.4374 17.7123 14.5827 17.7725 14.6899 17.8797C14.797 17.9868 14.8572 18.1322 14.8572 18.2837V18.8551H15.4287C15.5802 18.8551 15.7256 18.9153 15.8327 19.0225C15.9399 19.1297 16.0001 19.275 16.0001 19.4266C16.0001 19.5781 15.9399 19.7235 15.8327 19.8306C15.7256 19.9378 15.5802 19.998 15.4287 19.998H14.8572V20.5694C14.8572 20.721 14.797 20.8663 14.6899 20.9735C14.5827 21.0806 14.4374 21.1408 14.2858 21.1408C14.1343 21.1408 13.9889 21.0806 13.8817 20.9735C13.7746 20.8663 13.7144 20.721 13.7144 20.5694V19.998H12.5715C12.42 19.998 12.2746 19.9378 12.1675 19.8306C12.0603 19.7235 12.0001 19.5781 12.0001 19.4266V15.998ZM7.42865 20.5694C7.42865 19.4471 8.19265 18.8911 8.80693 18.4449C9.38636 18.0231 9.71436 17.7591 9.71436 17.2449C9.72736 17.0797 9.67461 16.9161 9.5676 16.7896C9.46059 16.6631 9.30797 16.584 9.14293 16.5694C8.76922 16.5694 8.52008 17.0666 8.51722 17.0717C8.45242 17.2076 8.33664 17.3124 8.19502 17.3634C8.05341 17.4143 7.89739 17.4074 7.76087 17.344C7.62435 17.2807 7.51834 17.166 7.46587 17.0249C7.4134 16.8838 7.41871 16.7278 7.48064 16.5906C7.62353 16.2622 7.8544 15.9797 8.14774 15.7743C8.44109 15.5689 8.7855 15.4486 9.14293 15.4266C9.61099 15.4415 10.0541 15.6412 10.3753 15.9819C10.6966 16.3227 10.8698 16.7767 10.8572 17.2449C10.8572 18.3671 10.0932 18.9226 9.47894 19.3688C9.2095 19.543 8.96645 19.7548 8.75722 19.998H10.2858C10.4373 19.998 10.5827 20.0582 10.6899 20.1654C10.797 20.2725 10.8572 20.4179 10.8572 20.5694C10.8572 20.721 10.797 20.8663 10.6899 20.9735C10.5827 21.0806 10.4373 21.1408 10.2858 21.1408H8.00007C7.84852 21.1408 7.70318 21.0806 7.59601 20.9735C7.48885 20.8663 7.42865 20.721 7.42865 20.5694Z" fill="#095C37"/>
<path id="Vector_6" d="M32.0002 17.1401C32.0002 16.6854 31.8195 16.2494 31.498 15.9279C31.1766 15.6064 30.7405 15.4258 30.2859 15.4258H28.0001C27.8486 15.4258 27.7032 15.486 27.5961 15.5931C27.4889 15.7003 27.4287 15.8457 27.4287 15.9972V22.8543C27.4287 23.0059 27.4889 23.1512 27.5961 23.2584C27.7032 23.3655 27.8486 23.4257 28.0001 23.4257H30.2859C30.7405 23.4257 31.1766 23.2451 31.498 22.9236C31.8195 22.6021 32.0002 22.1661 32.0002 21.7115V17.1401Z" fill="#095C37"/>
</g>
</g>
<defs>
<clipPath id="clip0_9170_37248">
<rect width="32" height="32" fill="white"/>
</clipPath>
</defs>
</svg>
