<svg width="40" height="40" viewBox="0 0 40 40" fill="none" xmlns="http://www.w3.org/2000/svg">
<g id="img-logo-n-green" clip-path="url(#clip0_11219_4962)">
<g id="Clip path group">
<mask id="mask0_11219_4962" style="mask-type:luminance" maskUnits="userSpaceOnUse" x="0" y="0" width="40" height="41">
<g id="clip0_798_5366">
<path id="Vector" d="M40 20.002C40 8.95626 31.0457 0.00195312 20 0.00195312C8.9543 0.00195312 0 8.95626 0 20.002C0 31.0476 8.9543 40.002 20 40.002C31.0457 40.002 40 31.0476 40 20.002Z" fill="white"/>
</g>
</mask>
<g mask="url(#mask0_11219_4962)">
<g id="Group">
<path id="Vector_2" d="M40 0.00195312H0V40.002H40V0.00195312Z" fill="#099250"/>
<path id="Vector_3" d="M27.0409 26.3482H25.1021C21.6646 26.2787 18.8776 23.4825 18.8776 20.0024C18.8776 18.9134 19.1736 17.8756 19.694 16.9318C19.1823 16.0046 18.4155 15.2665 17.4491 14.7824C16.359 16.3597 15.9185 18.0754 15.9185 20.0024C15.9185 25.1594 20.0004 29.3489 25.1021 29.4188H30.0001V10.5859H27.0409V26.3482Z" fill="white"/>
<path id="Vector_4" d="M13.0612 13.6565H14.898C18.3355 13.7261 21.1224 16.5223 21.1224 20.0024C21.1224 21.0914 20.8265 22.1292 20.3061 23.073C20.8178 24.0002 21.5846 24.7383 22.551 25.2224C23.6411 23.6451 24.0816 21.9294 24.0816 20.0024C24.0816 14.8453 19.9997 10.6559 14.898 10.5859H10V29.4188H13.0612V13.6565Z" fill="white"/>
</g>
</g>
</g>
</g>
<defs>
<clipPath id="clip0_11219_4962">
<rect width="40" height="40" fill="white"/>
</clipPath>
</defs>
</svg>
