<svg width="24" height="24" viewBox="0 0 24 24" fill="none" xmlns="http://www.w3.org/2000/svg">
<g id="chat 1">
<path id="Vector" d="M17.4545 2H6.54545C5.34037 2.00144 4.18505 2.4808 3.33293 3.33292C2.4808 4.18504 2.00144 5.34035 2 6.54542V13.8181C2.00132 14.8656 2.36372 15.8805 3.02611 16.6919C3.6885 17.5034 4.61038 18.0616 5.63636 18.2726V21.0908C5.63634 21.2554 5.681 21.4169 5.76557 21.5581C5.85014 21.6992 5.97146 21.8148 6.11658 21.8925C6.2617 21.9701 6.42517 22.0069 6.58956 21.9989C6.75395 21.9909 6.91309 21.9385 7.05 21.8471L12.2727 18.3635H17.4545C18.6596 18.3621 19.8149 17.8827 20.6671 17.0306C21.5192 16.1785 21.9986 15.0232 22 13.8181V6.54542C21.9986 5.34035 21.5192 4.18504 20.6671 3.33292C19.8149 2.4808 18.6596 2.00144 17.4545 2ZM15.6364 12.909H8.36364C8.12253 12.909 7.8913 12.8132 7.72081 12.6428C7.55032 12.4723 7.45455 12.241 7.45455 11.9999C7.45455 11.7588 7.55032 11.5276 7.72081 11.3571C7.8913 11.1866 8.12253 11.0908 8.36364 11.0908H15.6364C15.8775 11.0908 16.1087 11.1866 16.2792 11.3571C16.4497 11.5276 16.5455 11.7588 16.5455 11.9999C16.5455 12.241 16.4497 12.4723 16.2792 12.6428C16.1087 12.8132 15.8775 12.909 15.6364 12.909ZM17.4545 9.27268H6.54545C6.30435 9.27268 6.07312 9.1769 5.90263 9.00641C5.73214 8.83593 5.63636 8.6047 5.63636 8.36359C5.63636 8.12249 5.73214 7.89126 5.90263 7.72077C6.07312 7.55029 6.30435 7.45451 6.54545 7.45451H17.4545C17.6957 7.45451 17.9269 7.55029 18.0974 7.72077C18.2679 7.89126 18.3636 8.12249 18.3636 8.36359C18.3636 8.6047 18.2679 8.83593 18.0974 9.00641C17.9269 9.1769 17.6957 9.27268 17.4545 9.27268Z" fill="white"/>
</g>
</svg>
