<svg width="24" height="24" viewBox="0 0 24 24" fill="none" xmlns="http://www.w3.org/2000/svg">
<g id="flip 1">
<path id="Vector" d="M18.9037 5.48695H17.6858C17.1652 5.48695 17.035 5.09522 16.7917 4.60862C16.2108 3.44696 15.0436 2.72559 13.7452 2.72559H10.2548C8.9564 2.72559 7.78915 3.44696 7.20834 4.60862C6.96509 5.09522 6.83477 5.48695 6.31416 5.48695H5.09634C2.83055 5.48695 1 7.32078 1 9.58317V17.1769C1 19.4429 2.83421 21.273 5.09634 21.273H18.9037C21.1658 21.273 23 19.4429 23 17.1769V9.58317C23 7.32078 21.1694 5.48695 18.9037 5.48695ZM7.16743 15.06C7.00248 15.06 6.83752 14.9971 6.71171 14.8712L5.33099 13.4906C5.07928 13.2389 5.07928 12.8308 5.33099 12.5791C5.58266 12.3274 5.99078 12.3274 6.24249 12.5791L6.52591 12.8625C6.6173 9.92197 9.03761 7.55796 12 7.55796C13.4619 7.55796 14.8371 8.12779 15.8723 9.16252C16.1241 9.41418 16.1241 9.82224 15.8725 10.074C15.6208 10.3257 15.2127 10.3258 14.961 10.0742C14.1692 9.28279 13.1177 8.84693 12 8.84693C9.75084 8.84693 7.91041 10.6291 7.81609 12.8554L8.09247 12.5791C8.34413 12.3274 8.75225 12.3274 9.00396 12.5791C9.25567 12.8308 9.25567 13.2389 9.00396 13.4906L7.6232 14.8713C7.49735 14.9971 7.33239 15.06 7.16743 15.06ZM18.6691 13.4906C18.4174 13.7423 18.0093 13.7423 17.7576 13.4906L17.4741 13.2072C17.3827 16.1477 14.9624 18.5117 12 18.5117C10.5381 18.5117 9.1629 17.9419 8.1277 16.9072C7.87595 16.6555 7.87586 16.2474 8.12753 15.9957C8.3792 15.744 8.78731 15.7439 9.03902 15.9955C9.83077 16.7869 10.8823 17.2228 12 17.2228C14.2492 17.2228 16.0896 15.4406 16.1839 13.2143L15.9075 13.4906C15.6559 13.7423 15.2478 13.7423 14.996 13.4906C14.7443 13.2389 14.7443 12.8308 14.996 12.5791L16.3768 11.1985C16.5026 11.0726 16.6676 11.0097 16.8325 11.0097C16.9974 11.0097 17.1624 11.0726 17.2882 11.1985L18.6689 12.5791C18.9207 12.8308 18.9207 13.2389 18.6691 13.4906Z" fill="white"/>
</g>
</svg>
