<svg width="40" height="40" viewBox="0 0 40 40" fill="none" xmlns="http://www.w3.org/2000/svg">
<g id="Frame 4104">
<path id="Exclude" fill-rule="evenodd" clip-rule="evenodd" d="M20 40C31.0457 40 40 31.0457 40 20C40 8.9543 31.0457 0 20 0C8.9543 0 0 8.9543 0 20C0 31.0457 8.9543 40 20 40ZM8.10312 22.8125L8.01875 21.6594C8.00937 20.2766 8.55781 18.95 9.55156 17.9703C14.1875 13.025 31.3484 12.9594 31.9859 21.5984L31.8969 22.8641C31.8734 24.2703 30.725 25.3906 29.3234 25.3859C29.2859 25.3859 26.7828 25.0625 26.7828 25.0625C25.4047 25.025 24.2937 23.9141 24.2656 22.5359L24.1484 21.1953C24.1109 20.7453 23.8062 20.3562 23.375 20.2109C21.1859 19.4797 18.8188 19.475 16.6297 20.2062C16.1984 20.3469 15.8938 20.7359 15.8563 21.1906L15.7391 22.5406C15.7063 23.9188 14.6 25.0297 13.2219 25.0625C13.2219 25.0625 10.7188 25.3906 10.6812 25.3906C9.25625 25.3859 8.10312 24.2328 8.10312 22.8125Z" fill="#D92D20"/>
</g>
</svg>
