<svg width="16" height="24" viewBox="0 0 16 24" fill="none" xmlns="http://www.w3.org/2000/svg">
<g id="Group 2836">
<g id="Group">
<g id="Group_2">
<path id="Vector" d="M15.6798 12.3959C15.6798 11.9159 15.3128 11.5488 14.8328 11.5488C14.3528 11.5488 13.9857 11.9159 13.9857 12.3959C13.9857 15.6994 11.3034 18.3818 7.99982 18.3818C4.6963 18.3818 2.01394 15.6994 2.01394 12.3959C2.01394 11.9159 1.64688 11.5488 1.16688 11.5488C0.686883 11.5488 0.319824 11.9159 0.319824 12.3959C0.319824 16.3206 3.2563 19.6241 7.15277 20.0477V22.3065H4.07512C3.59512 22.3065 3.22806 22.6735 3.22806 23.1535C3.22806 23.6335 3.59512 24.0006 4.07512 24.0006H11.9245C12.4045 24.0006 12.7716 23.6335 12.7716 23.1535C12.7716 22.6735 12.4045 22.3065 11.9245 22.3065H8.84688V20.0477C12.7434 19.6241 15.6798 16.3206 15.6798 12.3959Z" fill="white"/>
</g>
</g>
<g id="Group_3">
<g id="Group_4">
<path id="Vector_2" d="M7.99947 0.000976562C5.40183 0.000976562 3.28418 2.11862 3.28418 4.71627V12.368C3.28418 14.9939 5.40183 17.0833 7.99947 17.1116C10.5971 17.1116 12.7148 14.9939 12.7148 12.3963V4.71627C12.7148 2.11862 10.5971 0.000976562 7.99947 0.000976562Z" fill="white"/>
</g>
</g>
</g>
</svg>
