<svg width="24" height="16" viewBox="0 0 24 16" fill="none" xmlns="http://www.w3.org/2000/svg">
<g id="Group 2837">
<g id="Group">
<g id="Group_2">
<path id="Vector" d="M13.5755 0.949219H2.62582C1.18162 0.949219 0 2.13084 0 3.57504V12.4241C0 13.8683 1.18162 15.0499 2.62582 15.0499H13.5755C15.0197 15.0499 16.2013 13.8683 16.2013 12.4241V3.57504C16.2013 2.10458 15.0197 0.949219 13.5755 0.949219Z" fill="white"/>
</g>
</g>
<g id="Group_3">
<g id="Group_4">
<path id="Vector_2" d="M22.0568 2.39288C21.8993 2.41914 21.7417 2.49791 21.6104 2.57669L17.5142 4.93992V11.0318L21.6367 13.3951C22.3982 13.8415 23.3435 13.5789 23.7899 12.8174C23.9212 12.5811 23.9999 12.3185 23.9999 12.0296V3.91586C23.9999 2.9443 23.0809 2.15656 22.0568 2.39288Z" fill="white"/>
</g>
</g>
</g>
</svg>
